<?xml version="1.0" encoding="UTF-8"?>
<svg version="1.1" xmlns="http://www.w3.org/2000/svg" width="1153" height="248">
<path d="M0 0 C380.49 0 760.98 0 1153 0 C1153 81.84 1153 163.68 1153 248 C772.51 248 392.02 248 0 248 C0 166.16 0 84.32 0 0 Z " fill="#14263A" transform="translate(0,0)"/>
<path d="M0 0 C2.99505026 1.49752513 3.18626025 3.61380803 4.35449219 6.71435547 C4.82115295 7.93905548 5.28781372 9.16375549 5.76861572 10.42556763 C6.01688362 11.08636448 6.26515152 11.74716133 6.52094269 12.42798233 C7.85397407 15.97423274 9.21069009 19.51142852 10.56445312 23.04980469 C10.8461095 23.78772058 11.12776588 24.52563648 11.41795731 25.28591347 C14.1433928 32.4116909 16.96689988 39.49658083 19.81330872 46.57474518 C20.64104061 48.6338464 21.46657623 50.69381437 22.29138184 52.75408936 C24.51504254 58.30789691 26.73924701 63.86144579 28.97802734 69.40917969 C30.38034382 72.88492525 31.7743001 76.36391971 33.1627121 79.84524155 C33.68430697 81.14859435 34.2089696 82.45072417 34.73688507 83.75152969 C35.46433218 85.54487076 36.18019087 87.3428994 36.89550781 89.14111328 C37.5073996 90.66298752 37.5073996 90.66298752 38.13165283 92.21560669 C38.99569302 94.98618947 39.17753968 97.11977907 39 100 C36.75790225 101.00159285 34.50899967 101.97533347 32.25 102.9375 C31.63511719 103.21529297 31.02023438 103.49308594 30.38671875 103.77929688 C24.38810038 106.29386922 18.45381054 106.69296489 12 107 C8.73828125 98.84570312 5.4765625 90.69140625 2.21484375 82.53710938 C1.86214417 81.65560211 1.50944458 80.77409485 1.14605713 79.86587524 C0.44075268 78.10212684 -0.26388072 76.33810995 -0.96783447 74.57382202 C-2.58379966 70.52592004 -4.20783688 66.48204244 -5.86230469 62.44970703 C-6.14472015 61.75720352 -6.42713562 61.06470001 -6.71810913 60.35121155 C-7.46908057 58.51203015 -8.22530353 56.67499547 -8.98193359 54.83813477 C-10 52 -10 52 -10 49 C-10.66 49 -11.32 49 -12 49 C-12.12963135 49.72615509 -12.2592627 50.45231018 -12.39282227 51.20046997 C-12.97081601 53.86544062 -13.74404545 56.24781507 -14.71484375 58.79248047 C-15.06611328 59.7189035 -15.41738281 60.64532654 -15.77929688 61.599823 C-16.16150391 62.59555328 -16.54371094 63.59128357 -16.9375 64.6171875 C-17.53594727 66.18945602 -17.53594727 66.18945602 -18.14648438 67.79348755 C-19.42732112 71.15540389 -20.71369866 74.51517124 -22 77.875 C-22.83497301 80.06627764 -23.66961161 82.25768274 -24.50390625 84.44921875 C-24.91600342 85.52931213 -25.32810059 86.60940552 -25.75268555 87.722229 C-26.58528424 89.90496903 -27.41617235 92.0883623 -28.24536133 94.2723999 C-30.30059343 99.66190101 -32.40666526 105.01942771 -34.6328125 110.34082031 C-35.05175781 111.35854523 -35.47070312 112.37627014 -35.90234375 113.42483521 C-36.68682366 115.32273067 -37.48755654 117.21403582 -38.30859375 119.09640503 C-40.98340032 125.61753786 -42.14331669 131.96117208 -41 139 C-39.58308697 141.30993425 -39.58308697 141.30993425 -38 143 C-37.32517578 142.09121094 -37.32517578 142.09121094 -36.63671875 141.1640625 C-21.08234429 120.90285329 -4.55264849 114.5869361 19.69921875 110.1328125 C36.49525508 106.96662083 50.26065901 100.85721417 61 87 C61.33 87 61.66 87 62 87 C62.26054224 93.85189914 61.70796993 99.98716262 60 106.625 C59.77997314 107.48601318 59.55994629 108.34702637 59.33325195 109.23413086 C54.3421651 127.56863201 43.32187784 146.16299115 26.9375 156.375 C13.8672558 163.69028397 -0.58051551 165.10751881 -15 161.1875 C-19.86257944 159.79590654 -24.39016036 158.05208423 -29 156 C-29 155.67 -29 155.34 -29 155 C-28.25016846 155.02094727 -27.50033691 155.04189453 -26.7277832 155.06347656 C-3.55046983 156.28118794 -3.55046983 156.28118794 17 147 C17.928125 146.319375 18.85625 145.63875 19.8125 144.9375 C22.24052887 143.11258498 22.24052887 143.11258498 23 140 C22.10861328 140.59748047 22.10861328 140.59748047 21.19921875 141.20703125 C8.31980041 149.43944328 -5.01816833 150.19975266 -19.94580078 150.24023438 C-22.12700579 150.25000899 -24.30729358 150.28114003 -26.48828125 150.3125 C-27.89061949 150.31902576 -29.29296436 150.32427791 -30.6953125 150.328125 C-31.95359863 150.3374707 -33.21188477 150.34681641 -34.50830078 150.35644531 C-40.90039311 149.70391736 -44.84103807 146.75309935 -49 142 C-51.73779625 133.78661126 -50.35607677 125.06939142 -47.84375 116.99609375 C-47.62057098 116.26070877 -47.39739197 115.52532379 -47.16744995 114.76765442 C-44.80277583 107.1195411 -42.02484574 99.64599733 -39.125 92.1875 C-38.84854645 91.47067047 -38.5720929 90.75384094 -38.28726196 90.01528931 C-28.84090284 65.53125462 -18.51360821 41.40818954 -8.125 17.3125 C-7.77198822 16.49252533 -7.41897644 15.67255066 -7.05526733 14.82772827 C-6.06311013 12.52584328 -5.06742758 10.22552224 -4.0703125 7.92578125 C-3.77313828 7.23598175 -3.47596405 6.54618225 -3.16978455 5.83547974 C-1.11542637 1.11542637 -1.11542637 1.11542637 0 0 Z " fill="#EEDA7D" transform="translate(137,27)"/>
<path d="M0 0 C7.26 0 14.52 0 22 0 C27.98528433 6.12447699 27.98528433 6.12447699 29.5234375 9.34375 C32.54111637 15.20785511 36.3041574 20.54820833 40 26 C41.38933561 28.09157517 42.77738438 30.18400577 44.1640625 32.27734375 C47.15612493 36.7654374 50.21390876 41.19235155 53.375 45.5625 C58.42225071 52.58772735 63.20164903 59.80247355 68 67 C68.33 44.89 68.66 22.78 69 0 C75.93 0 82.86 0 90 0 C90 33.66 90 67.32 90 102 C82.41 102 74.82 102 67 102 C59.13462971 91.88738105 59.13462971 91.88738105 56.09765625 87.2578125 C55.43443359 86.25363281 54.77121094 85.24945313 54.08789062 84.21484375 C53.41951172 83.19519531 52.75113281 82.17554688 52.0625 81.125 C48.27150376 75.35209593 44.48526907 69.60373481 40.37109375 64.0546875 C33.99042535 55.21640688 28.04669353 46.07004029 22 37 C21.67 58.45 21.34 79.9 21 102 C14.07 102 7.14 102 0 102 C0 68.34 0 34.68 0 0 Z " fill="#F7D850" transform="translate(887,59)"/>
<path d="M0 0 C1.00023193 0.00523682 2.00046387 0.01047363 3.03100586 0.01586914 C4.1105957 0.0190918 5.19018555 0.02231445 6.30249023 0.02563477 C8.00695312 0.03820313 8.00695312 0.03820313 9.74584961 0.05102539 C11.45611328 0.05779297 11.45611328 0.05779297 13.20092773 0.06469727 C16.02845312 0.07652792 18.85587601 0.09301129 21.68334961 0.11352539 C26.44988779 9.41605135 30.8729796 18.81939166 35.07919312 28.38650513 C36.44125207 31.4844092 37.81091845 34.57893288 39.18003845 37.67372131 C39.90164948 39.30501779 40.62288847 40.9364789 41.34376526 42.56809998 C45.12402601 51.12152062 48.93924282 59.65921865 52.7600708 68.19458008 C53.84422627 70.61654968 54.92765455 73.03884352 56.01098633 75.46118164 C56.52042786 76.59944901 56.52042786 76.59944901 57.04016113 77.76071167 C57.69543907 79.22507483 58.35016164 80.68968667 59.00427246 82.15457153 C61.23375657 87.13932423 63.52178768 92.09449005 65.86425781 97.02734375 C66.68334961 99.11352539 66.68334961 99.11352539 66.68334961 102.11352539 C58.76334961 102.11352539 50.84334961 102.11352539 42.68334961 102.11352539 C39.08088132 94.90858881 35.78156653 87.54924599 32.68334961 80.11352539 C17.50334961 79.78352539 2.32334961 79.45352539 -13.31665039 79.11352539 C-14.30665039 82.08352539 -15.29665039 85.05352539 -16.31665039 88.11352539 C-17.17424203 90.45331299 -18.04744176 92.78748576 -18.94165039 95.11352539 C-19.57973633 96.78415039 -19.57973633 96.78415039 -20.23071289 98.48852539 C-21.31665039 101.11352539 -21.31665039 101.11352539 -22.31665039 102.11352539 C-24.09736285 102.20078762 -25.88148179 102.2205158 -27.66430664 102.21118164 C-28.74389648 102.20795898 -29.82348633 102.20473633 -30.93579102 102.20141602 C-32.07209961 102.19303711 -33.2084082 102.1846582 -34.37915039 102.17602539 C-35.51932617 102.17151367 -36.65950195 102.16700195 -37.83422852 102.16235352 C-40.6617539 102.15052287 -43.48917679 102.13403949 -46.31665039 102.11352539 C-44.38522202 95.98613618 -42.12736692 90.11402035 -39.50805664 84.25024414 C-39.14522079 83.42868332 -38.78238495 82.6071225 -38.40855408 81.76066589 C-37.63517331 80.01039827 -36.86003236 78.26090749 -36.08325195 76.512146 C-34.03941702 71.91030577 -32.00885151 67.30261209 -29.97680664 62.69555664 C-29.57358185 61.78225586 -29.17035706 60.86895508 -28.75491333 59.92797852 C-25.39141836 52.30278594 -22.08673653 44.654231 -18.81665039 36.98852539 C-17.88305842 34.80232671 -16.94946472 32.61612878 -16.01586914 30.42993164 C-15.57291504 29.39239746 -15.12996094 28.35486328 -14.67358398 27.28588867 C-12.33857944 21.8269018 -9.98778269 16.37483985 -7.62915039 10.92602539 C-6.99493164 9.45335205 -6.99493164 9.45335205 -6.34790039 7.95092773 C-5.9624707 7.06228027 -5.57704102 6.17363281 -5.17993164 5.25805664 C-4.8426001 4.47793213 -4.50526855 3.69780762 -4.15771484 2.89404297 C-2.85678266 0.13999409 -2.85678266 0.13999409 0 0 Z " fill="#F7D750" transform="translate(618.316650390625,58.886474609375)"/>
<path d="M0 0 C1.5631897 0.00785522 1.5631897 0.00785522 3.15795898 0.01586914 C4.28266602 0.0190918 5.40737305 0.02231445 6.56616211 0.02563477 C7.75016602 0.03401367 8.93416992 0.04239258 10.15405273 0.05102539 C11.34192383 0.05553711 12.52979492 0.06004883 13.75366211 0.06469727 C16.69967499 0.07652864 19.64558954 0.09301252 22.59155273 0.11352539 C23.67481224 2.55085927 24.75806757 4.98819501 25.84130859 7.42553711 C26.86810406 9.73578513 27.89496256 12.04600514 28.921875 14.35620117 C31.99401793 21.2676453 35.06515953 28.1795325 38.13473511 35.09211731 C39.83224802 38.91472339 41.53008355 42.73718612 43.22802734 46.55960083 C44.09561577 48.51275337 44.96312875 50.46593943 45.83056641 52.41915894 C50.12704962 62.09260968 54.42671428 71.76446982 58.76733398 81.41821289 C59.07908066 82.11179901 59.39082733 82.80538513 59.71202087 83.51998901 C61.13374677 86.68187762 62.55804966 89.84255097 63.98583984 93.00170898 C64.46931885 94.07501465 64.95279785 95.14832031 65.45092773 96.25415039 C65.86826172 97.17744141 66.2855957 98.10073242 66.71557617 99.05200195 C67.59155273 101.11352539 67.59155273 101.11352539 67.59155273 102.11352539 C59.34155273 102.11352539 51.09155273 102.11352539 42.59155273 102.11352539 C41.10655273 98.68977539 39.62155273 95.26602539 38.09155273 91.73852539 C37.38675781 90.12131592 37.38675781 90.12131592 36.66772461 88.47143555 C36.30227539 87.62371582 35.93682617 86.77599609 35.56030273 85.90258789 C35.18325195 85.03327637 34.80620117 84.16396484 34.41772461 83.26831055 C33.59155273 81.11352539 33.59155273 81.11352539 33.59155273 79.11352539 C18.08155273 79.11352539 2.57155273 79.11352539 -13.40844727 79.11352539 C-13.73844727 80.76352539 -14.06844727 82.41352539 -14.40844727 84.11352539 C-14.91526999 85.60159094 -15.45896791 87.07756848 -16.03735352 88.53930664 C-16.4599646 89.61692261 -16.4599646 89.61692261 -16.89111328 90.71630859 C-17.2474585 91.61051514 -17.60380371 92.50472168 -17.97094727 93.42602539 C-19.67250977 97.72633789 -19.67250977 97.72633789 -21.40844727 102.11352539 C-29.65844727 102.11352539 -37.90844727 102.11352539 -46.40844727 102.11352539 C-42.63351572 91.97449455 -38.40531193 82.09747241 -34.02362061 72.20928955 C-32.01087663 67.66608985 -30.00883943 63.11817486 -28.00610352 58.57055664 C-27.6094751 57.67044861 -27.21284668 56.77034058 -26.80419922 55.84295654 C-20.72011087 42.0237181 -14.76800476 28.14642376 -8.93579102 14.21899414 C-8.55825684 13.31777832 -8.18072266 12.4165625 -7.79174805 11.48803711 C-7.10121035 9.83584774 -6.41319312 8.18260159 -5.72827148 6.52807617 C-3.06764101 0.14459737 -3.06764101 0.14459737 0 0 Z " fill="#F7D750" transform="translate(291.408447265625,58.886474609375)"/>
<path d="M0 0 C1.02150398 0.01061211 1.02150398 0.01061211 2.06364441 0.0214386 C4.2245687 0.04928056 6.38283697 0.11198598 8.54296875 0.17578125 C10.01363427 0.20087793 11.48434068 0.22368872 12.95507812 0.24414062 C16.54772832 0.29906937 20.13883903 0.38526478 23.73046875 0.48828125 C22.95485596 1.26316895 22.17924316 2.03805664 21.38012695 2.83642578 C19.693193 4.52475865 18.01122802 6.21808179 16.3359375 7.91796875 C15.13904297 9.12839844 15.13904297 9.12839844 13.91796875 10.36328125 C12.73267578 11.56597656 12.73267578 11.56597656 11.5234375 12.79296875 C8.71165005 15.50644195 5.80245625 18.06012168 2.85131836 20.61914062 C-1.44268782 24.40352089 -5.56074261 28.3797218 -9.70898438 32.32226562 C-10.7231543 33.28036133 -10.7231543 33.28036133 -11.7578125 34.2578125 C-12.36149658 34.83120361 -12.96518066 35.40459473 -13.5871582 35.99536133 C-15.26953125 37.48828125 -15.26953125 37.48828125 -18.26953125 39.48828125 C-16.60357334 43.1765517 -14.32390195 46.35348859 -11.95703125 49.61328125 C-11.5197168 50.22018799 -11.08240234 50.82709473 -10.63183594 51.45239258 C-9.68012354 52.77238641 -8.72710887 54.09144206 -7.77294922 55.40966797 C-6.24828318 57.51765865 -4.72906691 59.62948543 -3.2109375 61.7421875 C1.32431655 68.04601552 5.87068101 74.33999769 10.49609375 80.578125 C11.11967773 81.41964111 11.74326172 82.26115723 12.38574219 83.12817383 C13.57891926 84.735552 14.7747102 86.34099458 15.97363281 87.9440918 C19.47265817 92.6558592 22.70446435 97.45917123 25.73046875 102.48828125 C16.3771941 104.45044073 4.80271479 106.64690415 -4.26953125 102.48828125 C-13.010741 95.814605 -18.08978574 84.19141902 -23.04150391 74.64355469 C-26.35347069 68.32662459 -30.31760363 62.41763832 -34.26953125 56.48828125 C-37.32646302 57.95718105 -39.62446048 59.51854848 -42.14453125 61.80078125 C-44.49827229 63.92105405 -46.74909115 65.82288086 -49.35644531 67.64208984 C-52.00362584 69.85523811 -52.24796196 70.39047002 -53.04248047 73.9934082 C-53.0529541 75.30784912 -53.06342773 76.62229004 -53.07421875 77.9765625 C-53.08792511 78.6797612 -53.10163147 79.3829599 -53.11575317 80.10746765 C-53.15295204 82.33922904 -53.14934632 84.56875474 -53.14453125 86.80078125 C-53.16266561 88.31969608 -53.18347065 89.83858152 -53.20703125 91.35742188 C-53.26378947 95.06900388 -53.26527997 98.77478977 -53.26953125 102.48828125 C-60.85953125 102.48828125 -68.44953125 102.48828125 -76.26953125 102.48828125 C-76.26953125 69.15828125 -76.26953125 35.82828125 -76.26953125 1.48828125 C-69.00953125 1.48828125 -61.74953125 1.48828125 -54.26953125 1.48828125 C-54.26953125 16.00828125 -54.26953125 30.52828125 -54.26953125 45.48828125 C-49.36222298 41.19438651 -44.63321282 36.98964673 -40.08203125 32.36328125 C-39.53522705 31.81269043 -38.98842285 31.26209961 -38.42504883 30.69482422 C-36.70403618 28.96177308 -34.98635293 27.22548352 -33.26953125 25.48828125 C-19.80209157 11.86096806 -19.80209157 11.86096806 -14.05078125 7.05078125 C-12.08828546 5.40516009 -12.08828546 5.40516009 -10.00512695 2.83129883 C-6.47033775 -0.1962221 -4.60101842 -0.09467116 0 0 Z " fill="#F7D850" transform="translate(545.26953125,58.51171875)"/>
<path d="M0 0 C28.05 0 56.1 0 85 0 C85 5.61 85 11.22 85 17 C64.87 17 44.74 17 24 17 C24 24.59 24 32.18 24 40 C42.48 40 60.96 40 80 40 C80 45.61 80 51.22 80 57 C61.19 57 42.38 57 23 57 C23 66.24 23 75.48 23 85 C44.12 85 65.24 85 87 85 C87 90.61 87 96.22 87 102 C58.29 102 29.58 102 0 102 C0 68.34 0 34.68 0 0 Z " fill="#F5D650" transform="translate(1001,59)"/>
<path d="M0 0 C8.0064619 -2.39853237 17.00789305 -4.14626362 25.06097412 -1.11639404 C37.89064084 6.27028586 46.15903765 26.42365135 53 39 C56.06886971 35.20845189 58.87815613 31.32002087 61.5625 27.25 C61.986521 26.6103833 62.41054199 25.9707666 62.84741211 25.31176758 C66.27953262 20.12138091 69.67665252 14.90816126 73.0625 9.6875 C73.53953369 8.95241211 74.01656738 8.21732422 74.50805664 7.45996094 C74.95012451 6.77579102 75.39219238 6.09162109 75.84765625 5.38671875 C76.4355896 4.47732544 76.4355896 4.47732544 77.03540039 3.54956055 C78.06090239 1.9557089 78.06090239 1.9557089 79 0 C87.91 0 96.82 0 106 0 C101.86550307 6.4970666 97.78217268 12.87994681 93.3125 19.125 C92.26944423 20.59238606 91.22647811 22.05983586 90.18359375 23.52734375 C89.65749512 24.26581543 89.13139648 25.00428711 88.58935547 25.76513672 C85.55695618 30.02912798 82.54898727 34.31039533 79.53637695 38.58837891 C79.08866943 39.22308105 78.64096191 39.8577832 78.1796875 40.51171875 C77.70869629 41.20491211 77.23770508 41.89810547 76.75244141 42.61230469 C75 45 75 45 72.44677734 47.84863281 C63.48701348 58.23458568 63.62004049 68.10831385 63.875 81.375 C63.87694618 83.38281325 63.87437455 85.39063617 63.8671875 87.3984375 C63.85111156 92.269447 63.9273862 97.12633245 64 102 C56.41 102 48.82 102 41 102 C41.06703125 99.02097656 41.1340625 96.04195313 41.203125 92.97265625 C41.22723375 90.02658992 41.23052068 87.08116469 41.23193359 84.13500977 C41.24380033 82.11686248 41.27667772 80.0987083 41.33251953 78.08129883 C41.72442994 63.20718954 39.36207614 54.24299103 29.58837891 42.90710449 C26.83418581 39.60025245 24.44040212 36.04080485 22 32.5 C21.01191416 31.09529961 20.0225077 29.69152639 19.03125 28.2890625 C18.53753906 27.58942383 18.04382813 26.88978516 17.53515625 26.16894531 C15.93505698 23.90824527 14.32759886 21.65291779 12.71875 19.3984375 C12.17992187 18.64111328 11.64109375 17.88378906 11.0859375 17.10351562 C10.06252425 15.66544356 9.03665876 14.22911201 8.0078125 12.79492188 C5.06522749 8.6533554 2.45103706 4.45117578 0 0 Z " fill="#F6D750" transform="translate(769,59)"/>
<path d="M0 0 C7.59 0 15.18 0 23 0 C23 27.72 23 55.44 23 84 C41.81 84 60.62 84 80 84 C80 89.61 80 95.22 80 101 C53.6 101 27.2 101 0 101 C0 67.67 0 34.34 0 0 Z " fill="#F8D950" transform="translate(372,60)"/>
<path d="M0 0 C7.59 0 15.18 0 23 0 C23 27.72 23 55.44 23 84 C41.48 84 59.96 84 79 84 C79 89.61 79 95.22 79 101 C52.93 101 26.86 101 0 101 C0 67.67 0 34.34 0 0 Z " fill="#F7D850" transform="translate(699,60)"/>
<path d="M0 0 C2.75729434 2.75729434 3.57811404 6.0200237 4.8203125 9.6328125 C5.08383514 10.38464813 5.34735779 11.13648376 5.61886597 11.91110229 C6.45966003 14.31388353 7.29240951 16.71936534 8.125 19.125 C8.69348298 20.7540904 9.26248701 22.38299907 9.83203125 24.01171875 C11.22840231 28.00542139 12.61386473 32.00267412 14 36 C19.61 36.33 25.22 36.66 31 37 C31 39.97 31 42.94 31 46 C10.54 46 -9.92 46 -31 46 C-31 43.69 -31 41.38 -31 39 C-26.05 39 -21.1 39 -16 39 C-16.66 36.958125 -17.32 34.91625 -18 32.8125 C-20.58424314 24.81749779 -20.58424314 24.81749779 -20 21 C-18.53125 19.515625 -18.53125 19.515625 -16.5 18.25 C-9.59994852 13.50315607 -4.368695 7.09912937 0 0 Z " fill="#F5E7A8" transform="translate(190,163)"/>
<path d="M0 0 C0.66 0 1.32 0 2 0 C4.14083676 4.94594023 6.27695968 9.8938786 8.40869141 14.84375 C9.13492889 16.52823102 9.86246371 18.21215332 10.59130859 19.89550781 C11.63718745 22.31170141 12.67842261 24.7298494 13.71875 27.1484375 C14.04685669 27.9036972 14.37496338 28.65895691 14.7130127 29.43710327 C17 34.77225659 17 34.77225659 17 37 C6.77 37 -3.46 37 -14 37 C-12.22917523 31.09725076 -10.61559431 25.72720503 -8.30078125 20.1171875 C-7.81416016 18.93125 -7.32753906 17.7453125 -6.82617188 16.5234375 C-6.32666016 15.31945312 -5.82714844 14.11546875 -5.3125 12.875 C-4.79578987 11.6199703 -4.27951093 10.36476298 -3.76367188 9.109375 C-2.51332553 6.07115023 -1.25868796 3.0347762 0 0 Z " fill="#1C2C3A" transform="translate(300,84)"/>
<path d="M0 0 C3.27263861 2.67154173 4.57108217 6.16527082 6.13671875 9.96875 C6.42102249 10.64546753 6.70532623 11.32218506 6.99824524 12.01940918 C7.59590938 13.44683265 8.18992508 14.87578851 8.78051758 16.30615234 C9.68585277 18.4960156 10.60468933 20.67984071 11.52539062 22.86328125 C12.10497834 24.25226575 12.68378139 25.641578 13.26171875 27.03125 C13.53666672 27.68444214 13.81161469 28.33763428 14.09489441 29.01062012 C15.25969536 31.84949037 16 33.89770594 16 37 C6.1 37 -3.8 37 -14 37 C-13.17509527 32.05057163 -12.00850345 28.15227604 -10.05859375 23.6328125 C-9.77146011 22.95322479 -9.48432648 22.27363708 -9.18849182 21.57345581 C-8.27756035 19.42133627 -7.35769767 17.27317147 -6.4375 15.125 C-5.81515942 13.65910696 -5.19340847 12.19296346 -4.57226562 10.7265625 C-3.05498257 7.1481081 -1.52968239 3.5731706 0 0 Z " fill="#1B2C3A" transform="translate(627,84)"/>
<path d="M0 0 C2.75729434 2.75729434 3.57811404 6.0200237 4.8203125 9.6328125 C5.08383514 10.38464813 5.34735779 11.13648376 5.61886597 11.91110229 C6.45966003 14.31388353 7.29240951 16.71936534 8.125 19.125 C8.69348298 20.7540904 9.26248701 22.38299907 9.83203125 24.01171875 C11.22840231 28.00542139 12.61386473 32.00267412 14 36 C19.61 36.33 25.22 36.66 31 37 C31 39.97 31 42.94 31 46 C20.44 46 9.88 46 -1 46 C-1.14276266 40.35832545 -1.28529844 34.71664615 -1.42724609 29.07495117 C-1.47561345 27.15535141 -1.5241153 25.23575502 -1.57275391 23.31616211 C-1.64260575 20.55843976 -1.71197537 17.80070565 -1.78125 15.04296875 C-1.80312378 14.18350143 -1.82499756 13.32403412 -1.84753418 12.43852234 C-1.86755493 11.63791885 -1.88757568 10.83731537 -1.90820312 10.01245117 C-1.92596802 9.3085173 -1.94373291 8.60458344 -1.96203613 7.87931824 C-2.05882028 3.08823043 -2.05882028 3.08823043 0 0 Z " fill="#EBD363" transform="translate(190,163)"/>
<path d="M0 0 C2.3402967 1.72978452 3.00371088 3.01192784 3.875 5.8125 C4.61883117 11.80115535 1.67449256 17.46622619 -0.4375 22.9375 C-0.87126953 24.09830078 -1.30503906 25.25910156 -1.75195312 26.45507812 C-2.82058798 29.30868548 -3.90842263 32.15508977 -5 35 C-0.05 35 4.9 35 10 35 C10 37.64 10 40.28 10 43 C-2.87 43 -15.74 43 -29 43 C-29 40.36 -29 37.72 -29 35 C-24.05 34.67 -19.1 34.34 -14 34 C-13.61142822 33.00556885 -13.22285645 32.0111377 -12.82250977 30.98657227 C-11.38456018 27.30861346 -9.94317589 23.63200898 -8.50073242 19.95581055 C-7.87609089 18.36243014 -7.2523902 16.76868058 -6.62963867 15.17456055 C-5.73601526 12.88753866 -4.83905237 10.60185172 -3.94140625 8.31640625 C-3.6622084 7.59973282 -3.38301056 6.88305939 -3.09535217 6.14466858 C-1.11387171 1.11387171 -1.11387171 1.11387171 0 0 Z " fill="#EFD665" transform="translate(81,166)"/>
<path d="M0 0 C3.3020291 1.62204938 5.17219129 2.90879761 7.375 5.8125 C8.65125865 10.27940528 8.39873543 13.90872409 6.8125 18.25 C4.66847227 21.50300759 3.66005104 22.62748086 0 24 C-4.45547828 24.61220312 -8.90289542 25.06280446 -13.01171875 22.98046875 C-16.27151702 20.36789435 -17.72158184 18.08813617 -18.2734375 13.94921875 C-18.46508086 9.68146862 -18.41093753 6.8840947 -15.625 3.5 C-10.91485615 -0.98585129 -6.28226312 -0.64683386 0 0 Z " fill="#1B2C40" transform="translate(992,182)"/>
<path d="M0 0 C3.83075794 1.59614914 5.78252057 3.53826822 8 7 C8.80407057 11.0605564 8.93064111 15.22072831 6.98046875 18.94921875 C4.85618473 21.59976044 3.23500981 22.9216634 0 24 C-5.02013384 24.52707085 -8.90468051 24.52810047 -13.5 22.3125 C-17.20592951 18.8845152 -17.83480306 16.51430531 -18.375 11.5625 C-17.92715888 7.30800938 -16.6792268 5.2916215 -14 2 C-9.53862011 -0.97425326 -5.23225066 -0.49867492 0 0 Z " fill="#1E2F42" transform="translate(717,182)"/>
<path d="M0 0 C3.3020291 1.62204938 5.17219129 2.90879761 7.375 5.8125 C8.65125865 10.27940528 8.39873543 13.90872409 6.8125 18.25 C4.66847227 21.50300759 3.66005104 22.62748086 0 24 C-4.45547828 24.61220312 -8.90289542 25.06280446 -13.01171875 22.98046875 C-16.27151702 20.36789435 -17.72158184 18.08813617 -18.2734375 13.94921875 C-18.46508086 9.68146862 -18.41093753 6.8840947 -15.625 3.5 C-10.91485615 -0.98585129 -6.28226312 -0.64683386 0 0 Z " fill="#1B2C40" transform="translate(621,182)"/>
<path d="M0 0 C3.83075794 1.59614914 5.78252057 3.53826822 8 7 C8.80407057 11.0605564 8.93064111 15.22072831 6.98046875 18.94921875 C4.85618473 21.59976044 3.23500981 22.9216634 0 24 C-5.02013384 24.52707085 -8.90468051 24.52810047 -13.5 22.3125 C-17.20592951 18.8845152 -17.83480306 16.51430531 -18.375 11.5625 C-17.92715888 7.30800938 -16.6792268 5.2916215 -14 2 C-9.53862011 -0.97425326 -5.23225066 -0.49867492 0 0 Z " fill="#1C2D41" transform="translate(550,182)"/>
<path d="M0 0 C3.33173666 1.31881243 4.58693038 2.48722392 6.8125 5.25 C8.56345242 9.30483718 8.88558896 12.75196648 7.23828125 16.93359375 C5.33604787 20.55009279 3.79641456 22.56790056 0 24 C-4.38605167 24.62941829 -8.99829606 25.04352395 -13.015625 22.94921875 C-15.89906552 20.5766791 -17.8026448 18.56756417 -18.2734375 14.828125 C-18.58137554 7.01123631 -18.58137554 7.01123631 -15.625 3.4375 C-10.85614499 -0.99072251 -6.27993274 -0.49984993 0 0 Z " fill="#1C2E41" transform="translate(942,182)"/>
<path d="M0 0 C3.5578125 -0.0928125 3.5578125 -0.0928125 7.1875 -0.1875 C8.29387817 -0.22846802 8.29387817 -0.22846802 9.42260742 -0.27026367 C13.83935173 -0.32573392 16.52119467 0.27164994 20 3 C22.9744974 7.4617461 22.49796388 11.76754876 22 17 C20.78967561 19.96529476 19.9825945 21.32682829 17.375 23.11328125 C14.01669681 24.36712142 10.77768075 24.21102243 7.25 24.125 C4.8575 24.08375 2.465 24.0425 0 24 C0 16.08 0 8.16 0 0 Z " fill="#1E3043" transform="translate(269,182)"/>
<path d="M0 0 C0.33 0 0.66 0 1 0 C1 14.19 1 28.38 1 43 C-12.53 43 -26.06 43 -40 43 C-40 42.67 -40 42.34 -40 42 C-39.26136719 41.85304687 -38.52273438 41.70609375 -37.76171875 41.5546875 C-26.36733482 39.03547174 -16.18007087 34.52798434 -9 25 C-4.16880984 17.08486829 -0.93293567 9.32935667 0 0 Z " fill="#FFFFFF" transform="translate(1152,205)"/>
<path d="M0 0 C12.87 0 25.74 0 39 0 C39 14.19 39 28.38 39 43 C38.67 43 38.34 43 38 43 C37.85304688 42.11699219 37.70609375 41.23398437 37.5546875 40.32421875 C35.13710614 27.38876904 30.53591213 17.26787608 20 9 C13.66589789 5.11107828 7.29374895 2.40264403 0 1 C0 0.67 0 0.34 0 0 Z " fill="#FFFFFF" transform="translate(1114,0)"/>
<path d="M0 0 C0.33 0 0.66 0 1 0 C1.20753906 0.81082031 1.41507812 1.62164062 1.62890625 2.45703125 C5.21015201 15.32853797 10.65227321 24.62659227 22 32 C27.71046017 35.21513304 33.57755041 36.84608471 40 38 C40 38.33 40 38.66 40 39 C26.8 39 13.6 39 0 39 C0 26.13 0 13.26 0 0 Z " fill="#FFFFFF" transform="translate(0,209)"/>
<path d="M0 0 C12.87 0 25.74 0 39 0 C39 0.33 39 0.66 39 1 C38.17757812 1.21914063 37.35515625 1.43828125 36.5078125 1.6640625 C23.59094865 5.33328711 13.22920684 10.65927939 6.46484375 22.7421875 C3.94771223 28.04063927 2.19066198 33.26317409 1 39 C0.67 39 0.34 39 0 39 C0 26.13 0 13.26 0 0 Z " fill="#FFFFFF" transform="translate(0,0)"/>
<path d="M0 0 C5.625 1.125 5.625 1.125 8.11328125 4.37890625 C8.63857422 5.05244141 9.16386719 5.72597656 9.70507812 6.41992188 C10.50075195 7.48049805 10.50075195 7.48049805 11.3125 8.5625 C11.86228516 9.27341797 12.41207031 9.98433594 12.97851562 10.71679688 C14.33077139 12.46884999 15.66697877 14.23326851 17 16 C17.33 10.72 17.66 5.44 18 0 C19.32 0 20.64 0 22 0 C22 7.92 22 15.84 22 24 C16.375 22.875 16.375 22.875 13.88671875 19.40234375 C13.36142578 18.68369141 12.83613281 17.96503906 12.29492188 17.22460938 C11.49924805 16.09249023 11.49924805 16.09249023 10.6875 14.9375 C9.86282227 13.79958008 9.86282227 13.79958008 9.02148438 12.63867188 C7.66852902 10.76806403 6.33258567 8.88517303 5 7 C4.67 12.61 4.34 18.22 4 24 C2.68 24 1.36 24 0 24 C0 16.08 0 8.16 0 0 Z " fill="#E7E9EB" transform="translate(412,182)"/>
<path d="M0 0 C1.65 0 3.3 0 5 0 C6.83645687 3.81100321 8.66864144 7.62404453 10.5 11.4375 C11.02464844 12.52611328 11.54929687 13.61472656 12.08984375 14.73632812 C12.58613281 15.77080078 13.08242188 16.80527344 13.59375 17.87109375 C14.05458984 18.82943115 14.51542969 19.78776855 14.99023438 20.77514648 C16 23 16 23 16 24 C14.35 24 12.7 24 11 24 C10.34 21.69 9.68 19.38 9 17 C4.92344518 17.01264048 0.99259074 17.1362967 -3 18 C-5.39248595 20.85602535 -5.39248595 20.85602535 -6 24 C-7.32 23.67 -8.64 23.34 -10 23 C-6.7 15.41 -3.4 7.82 0 0 Z " fill="#E7E9EB" transform="translate(250,182)"/>
<path d="M0 0 C1.65 0 3.3 0 5 0 C10.445 11.385 10.445 11.385 16 23 C14.68 23.33 13.36 23.66 12 24 C9 19.25 9 19.25 9 17 C4.92344518 17.01264048 0.99259074 17.1362967 -3 18 C-5.39248595 20.85602535 -5.39248595 20.85602535 -6 24 C-7.32 23.67 -8.64 23.34 -10 23 C-6.7 15.41 -3.4 7.82 0 0 Z " fill="#E7E9EB" transform="translate(327,182)"/>
<path d="M0 0 C5.625 1.125 5.625 1.125 8.11328125 4.59765625 C8.9012207 5.67563477 8.9012207 5.67563477 9.70507812 6.77539062 C10.23552734 7.53013672 10.76597656 8.28488281 11.3125 9.0625 C12.13717773 10.20041992 12.13717773 10.20041992 12.97851562 11.36132812 C14.33147098 13.23193597 15.66741433 15.11482697 17 17 C17.33 11.39 17.66 5.78 18 0 C19.32 0 20.64 0 22 0 C22 7.92 22 15.84 22 24 C20.35 24 18.7 24 17 24 C14.6484375 21.515625 14.6484375 21.515625 12.375 18.25 C11.61960937 17.18265625 10.86421875 16.1153125 10.0859375 15.015625 C9.39757812 14.02046875 8.70921875 13.0253125 8 12 C7.41476562 11.25234375 6.82953125 10.5046875 6.2265625 9.734375 C5 8 5 8 5 6 C4.34 6 3.68 6 3 6 C3 11.94 3 17.88 3 24 C2.01 24 1.02 24 0 24 C0 16.08 0 8.16 0 0 Z " fill="#EEEFF1" transform="translate(346,182)"/>
<path d="M0 0 C2.05575889 1.9187083 2.58864159 2.98186874 2.875 5.75 C0.36435405 5.30167037 -0.97897562 4.87588308 -2.9375 3.1875 C-6.17394508 1.06069323 -8.33589181 1.21819534 -12.125 1.75 C-15.20833333 3.66666667 -15.20833333 3.66666667 -17.125 6.75 C-17.64105446 10.95215772 -17.57773312 14.20716327 -15.125 17.75 C-12.63745214 18.99377393 -10.89844699 18.88306235 -8.125 18.875 C-6.7946875 18.87886719 -6.7946875 18.87886719 -5.4375 18.8828125 C-3.09823034 18.90127902 -3.09823034 18.90127902 -1.125 17.75 C-0.47286708 15.72536745 -0.47286708 15.72536745 -0.125 13.75 C-2.765 13.75 -5.405 13.75 -8.125 13.75 C-8.125 12.76 -8.125 11.77 -8.125 10.75 C-4.165 10.75 -0.205 10.75 3.875 10.75 C3.875 13.72 3.875 16.69 3.875 19.75 C-2.10989814 22.94194568 -7.38284589 23.50144752 -14.125 22.75 C-17.78505104 21.37748086 -18.79347227 20.25300759 -20.9375 17 C-22.31817311 13.22131569 -22.62445097 10.74560775 -22.125 6.75 C-17.47137267 -2.05865173 -9.08543127 -3.63417251 0 0 Z " fill="#E7E9EB" transform="translate(461.125,183.25)"/>
<path d="M0 0 C6.6 0 13.2 0 20 0 C20 0.99 20 1.98 20 3 C14.72 3 9.44 3 4 3 C4 5.31 4 7.62 4 10 C8.95 10 13.9 10 19 10 C19 10.99 19 11.98 19 13 C14.05 13 9.1 13 4 13 C4 15.64 4 18.28 4 21 C9.61 21 15.22 21 21 21 C21 21.99 21 22.98 21 24 C14.07 24 7.14 24 0 24 C0 16.08 0 8.16 0 0 Z " fill="#ECEEEF" transform="translate(815,182)"/>
<path d="M0 0 C6.6 0 13.2 0 20 0 C20 0.99 20 1.98 20 3 C14.72 3 9.44 3 4 3 C4 5.31 4 7.62 4 10 C8.95 10 13.9 10 19 10 C19 10.99 19 11.98 19 13 C14.05 13 9.1 13 4 13 C4 15.64 4 18.28 4 21 C9.61 21 15.22 21 21 21 C21 21.99 21 22.98 21 24 C14.07 24 7.14 24 0 24 C0 16.08 0 8.16 0 0 Z " fill="#EBEDEE" transform="translate(480,182)"/>
<path d="M0 0 C1.32 0 2.64 0 4 0 C4 3.3 4 6.6 4 10 C8.62 10 13.24 10 18 10 C18 6.7 18 3.4 18 0 C19.32 0 20.64 0 22 0 C22 7.92 22 15.84 22 24 C20.68 24 19.36 24 18 24 C18 20.37 18 16.74 18 13 C13.38 13 8.76 13 4 13 C4 16.63 4 20.26 4 24 C2.68 24 1.36 24 0 24 C0 16.08 0 8.16 0 0 Z " fill="#E7E9EB" transform="translate(869,182)"/>
<path d="M0 0 C3.1875 1.8125 3.1875 1.8125 5 4 C5 4.99 5 5.98 5 7 C3.68 7 2.36 7 1 7 C0.34 6.01 -0.32 5.02 -1 4 C-3.20725073 3.63637182 -3.20725073 3.63637182 -5.625 3.8125 C-6.44226563 3.83957031 -7.25953125 3.86664063 -8.1015625 3.89453125 C-9.04128906 3.94673828 -9.04128906 3.94673828 -10 4 C-10 5.32 -10 6.64 -10 8 C-9.26394531 8.17015625 -8.52789063 8.3403125 -7.76953125 8.515625 C1.92267135 10.92267135 1.92267135 10.92267135 6 15 C5.51196227 20.4904245 5.51196227 20.4904245 3.32421875 22.66796875 C-1.09368837 25.19991216 -6.08174734 24.73136363 -11 24 C-14.25 21.6875 -14.25 21.6875 -16 19 C-16 18.01 -16 17.02 -16 16 C-14.68 16 -13.36 16 -12 16 C-11.34 17.32 -10.68 18.64 -10 20 C-6.7 20 -3.4 20 0 20 C0.33 18.68 0.66 17.36 1 16 C-1.61188669 14.47639943 -4.07528425 13.71183055 -7 13.0625 C-10.27768397 12.29811475 -12.47400899 11.31549176 -15 9 C-14.6875 5.625 -14.6875 5.625 -14 2 C-9.54708696 -0.96860869 -5.22256021 -0.63280657 0 0 Z " fill="#E6E8EA" transform="translate(773,182)"/>
<path d="M0 0 C1.56041016 -0.00773438 1.56041016 -0.00773438 3.15234375 -0.015625 C6.03457021 0.2474507 7.68045651 0.64006716 10.0625 2.25 C11.3125 4.875 11.3125 4.875 12.0625 7.25 C10.7425 7.25 9.4225 7.25 8.0625 7.25 C7.464375 6.59 6.86625 5.93 6.25 5.25 C4.12407332 2.93045109 4.12407332 2.93045109 0.625 2.75 C-3.62313364 3.34622928 -5.23831929 3.89647245 -7.9375 7.25 C-8.7258987 11.3421647 -8.70407131 14.78516571 -6.75390625 18.51171875 C-5.0304578 20.48989182 -5.0304578 20.48989182 -2.30859375 20.67578125 C-0.85646484 20.61970703 -0.85646484 20.61970703 0.625 20.5625 C1.59566406 20.53800781 2.56632813 20.51351562 3.56640625 20.48828125 C6.05970414 20.40147818 6.05970414 20.40147818 8.0625 19.25 C8.71463292 17.22536745 8.71463292 17.22536745 9.0625 15.25 C6.4225 15.25 3.7825 15.25 1.0625 15.25 C1.0625 14.26 1.0625 13.27 1.0625 12.25 C4.6925 12.25 8.3225 12.25 12.0625 12.25 C12.0625 15.22 12.0625 18.19 12.0625 21.25 C6.59838712 24.79428943 1.37668106 25.09439271 -4.9375 24.25 C-8.54661206 22.5404206 -10.28311921 21.3505495 -12.3125 17.9375 C-13.48409061 12.89966038 -13.64845077 9.54932382 -11.125 4.9375 C-7.61399559 0.6239803 -5.38619462 -0.02663137 0 0 Z " fill="#ECEEEF" transform="translate(1016.9375,181.75)"/>
<path d="M0 0 C5.625 1.125 5.625 1.125 8.11328125 4.59765625 C8.9012207 5.67563477 8.9012207 5.67563477 9.70507812 6.77539062 C10.23552734 7.53013672 10.76597656 8.28488281 11.3125 9.0625 C12.13717773 10.20041992 12.13717773 10.20041992 12.97851562 11.36132812 C14.33147098 13.23193597 15.66741433 15.11482697 17 17 C17.33 11.39 17.66 5.78 18 0 C18.99 0 19.98 0 21 0 C21 7.92 21 15.84 21 24 C17 24 17 24 15.35253906 22.43945312 C14.82885742 21.72724609 14.30517578 21.01503906 13.765625 20.28125 C13.19199219 19.51425781 12.61835937 18.74726563 12.02734375 17.95703125 C11.44082031 17.14621094 10.85429688 16.33539063 10.25 15.5 C9.34701172 14.28376953 9.34701172 14.28376953 8.42578125 13.04296875 C6.93906712 11.03708461 5.46802834 9.01959969 4 7 C3.67 12.61 3.34 18.22 3 24 C2.01 24 1.02 24 0 24 C0 16.08 0 8.16 0 0 Z " fill="#F8F8F9" transform="translate(634,182)"/>
<path d="M0 0 C5.87115833 1.17423167 6.31589687 2.11038955 9.625 6.8125 C10.38039063 7.87082031 11.13578125 8.92914063 11.9140625 10.01953125 C12.60242188 11.00308594 13.29078125 11.98664063 14 13 C14.99 14.32 15.98 15.64 17 17 C17.33 11.39 17.66 5.78 18 0 C18.99 0 19.98 0 21 0 C21 7.92 21 15.84 21 24 C15.375 22.875 15.375 22.875 12.88671875 19.40234375 C12.36142578 18.68369141 11.83613281 17.96503906 11.29492188 17.22460938 C10.49924805 16.09249023 10.49924805 16.09249023 9.6875 14.9375 C8.86282227 13.79958008 8.86282227 13.79958008 8.02148438 12.63867188 C6.66852902 10.76806403 5.33258567 8.88517303 4 7 C3.67 12.61 3.34 18.22 3 24 C2.01 24 1.02 24 0 24 C0 16.08 0 8.16 0 0 Z " fill="#F9F9FA" transform="translate(897,182)"/>
<path d="M0 0 C3.57133419 0.47965364 5.38454562 1.59409062 7.67578125 4.359375 C7.67578125 5.349375 7.67578125 6.339375 7.67578125 7.359375 C6.35578125 7.359375 5.03578125 7.359375 3.67578125 7.359375 C3.67578125 6.369375 3.67578125 5.379375 3.67578125 4.359375 C0.04578125 4.359375 -3.58421875 4.359375 -7.32421875 4.359375 C-7.32421875 5.679375 -7.32421875 6.999375 -7.32421875 8.359375 C-6.58816406 8.52953125 -5.85210938 8.6996875 -5.09375 8.875 C4.5984526 11.28204635 4.5984526 11.28204635 8.67578125 15.359375 C8.18774352 20.8497995 8.18774352 20.8497995 6 23.02734375 C1.58209288 25.55928716 -3.40596609 25.09073863 -8.32421875 24.359375 C-11.57421875 22.046875 -11.57421875 22.046875 -13.32421875 19.359375 C-13.32421875 18.369375 -13.32421875 17.379375 -13.32421875 16.359375 C-12.00421875 16.359375 -10.68421875 16.359375 -9.32421875 16.359375 C-8.99421875 17.349375 -8.66421875 18.339375 -8.32421875 19.359375 C-5.67963496 20.68166689 -3.64660574 20.45614694 -0.69921875 20.421875 C0.30367187 20.41285156 1.3065625 20.40382812 2.33984375 20.39453125 C3.49613281 20.37712891 3.49613281 20.37712891 4.67578125 20.359375 C4.67578125 18.709375 4.67578125 17.059375 4.67578125 15.359375 C3.78375 15.18921875 2.89171875 15.0190625 1.97265625 14.84375 C0.8021875 14.60140625 -0.36828125 14.3590625 -1.57421875 14.109375 C-3.31445312 13.76132813 -3.31445312 13.76132813 -5.08984375 13.40625 C-8.57242685 12.27903711 -10.11148755 11.24196528 -12.32421875 8.359375 C-12.25513622 5.52699144 -11.80330435 3.99611497 -10.1015625 1.734375 C-7.01872788 -0.65058717 -3.75520746 -0.09947569 0 0 Z " fill="#E8EAEC" transform="translate(1083.32421875,181.640625)"/>
<path d="M0 0 C3.3020291 1.62204938 5.17219129 2.90879761 7.375 5.8125 C8.65125865 10.27940528 8.39873543 13.90872409 6.8125 18.25 C4.66847227 21.50300759 3.66005104 22.62748086 0 24 C-4.45547828 24.61220312 -8.90289542 25.06280446 -13.01171875 22.98046875 C-16.27151702 20.36789435 -17.72158184 18.08813617 -18.2734375 13.94921875 C-18.46508086 9.68146862 -18.41093753 6.8840947 -15.625 3.5 C-10.91485615 -0.98585129 -6.28226312 -0.64683386 0 0 Z M-13 5 C-14.87197419 8.74394838 -14.67033692 12.93328938 -14 17 C-12.26394053 19.72122817 -10.95085074 20.36063848 -8 22 C-3.99883483 22.73490789 -2.58221026 22.38814018 0.8125 20.125 C3.70901877 17.31123891 4.21915969 15.62424188 4.4375 11.6875 C4.40771158 9.04909739 4.33773141 7.50951867 2.87109375 5.296875 C0.37513115 3.02900297 -1.75618203 2.03980702 -5.0625 1.5 C-8.3536683 2.06019886 -10.32958728 3.01626484 -13 5 Z " fill="#EEEFF0" transform="translate(992,182)"/>
<path d="M0 0 C3.3020291 1.62204938 5.17219129 2.90879761 7.375 5.8125 C8.65125865 10.27940528 8.39873543 13.90872409 6.8125 18.25 C4.66847227 21.50300759 3.66005104 22.62748086 0 24 C-4.45547828 24.61220312 -8.90289542 25.06280446 -13.01171875 22.98046875 C-16.27151702 20.36789435 -17.72158184 18.08813617 -18.2734375 13.94921875 C-18.46508086 9.68146862 -18.41093753 6.8840947 -15.625 3.5 C-10.91485615 -0.98585129 -6.28226312 -0.64683386 0 0 Z M-13 5 C-14.87197419 8.74394838 -14.67033692 12.93328938 -14 17 C-12.26394053 19.72122817 -10.95085074 20.36063848 -8 22 C-3.99883483 22.73490789 -2.58221026 22.38814018 0.8125 20.125 C3.70901877 17.31123891 4.21915969 15.62424188 4.4375 11.6875 C4.40771158 9.04909739 4.33773141 7.50951867 2.87109375 5.296875 C0.37513115 3.02900297 -1.75618203 2.03980702 -5.0625 1.5 C-8.3536683 2.06019886 -10.32958728 3.01626484 -13 5 Z " fill="#EEEFF0" transform="translate(621,182)"/>
<path d="M0 0 C3.5578125 -0.0928125 3.5578125 -0.0928125 7.1875 -0.1875 C8.29387817 -0.22846802 8.29387817 -0.22846802 9.42260742 -0.27026367 C13.83935173 -0.32573392 16.52119467 0.27164994 20 3 C22.9744974 7.4617461 22.49796388 11.76754876 22 17 C20.78967561 19.96529476 19.9825945 21.32682829 17.375 23.11328125 C14.01669681 24.36712142 10.77768075 24.21102243 7.25 24.125 C4.8575 24.08375 2.465 24.0425 0 24 C0 16.08 0 8.16 0 0 Z M3 3 C3 8.94 3 14.88 3 21 C10.25204268 21.71314647 10.25204268 21.71314647 16.625 19.125 C19.15312577 15.21789653 19.47819258 12.70222704 19 8 C17.33821811 4.83651599 17.33821811 4.83651599 14 3 C10.22852276 2.58683255 6.81489198 2.77018723 3 3 Z " fill="#F9FAFA" transform="translate(269,182)"/>
<path d="M0 0 C3.83075794 1.59614914 5.78252057 3.53826822 8 7 C8.80407057 11.0605564 8.93064111 15.22072831 6.98046875 18.94921875 C4.85618473 21.59976044 3.23500981 22.9216634 0 24 C-5.02013384 24.52707085 -8.90468051 24.52810047 -13.5 22.3125 C-17.20592951 18.8845152 -17.83480306 16.51430531 -18.375 11.5625 C-17.92715888 7.30800938 -16.6792268 5.2916215 -14 2 C-9.53862011 -0.97425326 -5.23225066 -0.49867492 0 0 Z M-12.859375 5.30859375 C-14.72878976 8.08070536 -14.68648111 10.57778331 -14.46875 13.84375 C-13.77989736 17.01247216 -12.33200445 18.80517228 -10 21 C-7.17998673 22.41000664 -5.12992745 22.24548451 -2 22 C1.71156874 20.23526445 1.71156874 20.23526445 4 17 C4.73574364 10.3246531 4.73574364 10.3246531 2.125 4.4375 C-3.18625914 0.84458941 -7.90768497 0.73479585 -12.859375 5.30859375 Z " fill="#EEEFF0" transform="translate(550,182)"/>
<path d="M0 0 C3.33173666 1.31881243 4.58693038 2.48722392 6.8125 5.25 C8.56345242 9.30483718 8.88558896 12.75196648 7.23828125 16.93359375 C5.33604787 20.55009279 3.79641456 22.56790056 0 24 C-4.38605167 24.62941829 -8.99829606 25.04352395 -13.015625 22.94921875 C-15.89906552 20.5766791 -17.8026448 18.56756417 -18.2734375 14.828125 C-18.58137554 7.01123631 -18.58137554 7.01123631 -15.625 3.4375 C-10.85614499 -0.99072251 -6.27993274 -0.49984993 0 0 Z M-14 6 C-15.53214888 9.06429776 -15.22938548 11.6165642 -15 15 C-13.74360091 17.82689795 -12.67448232 19.47004961 -10.25 21.375 C-6.89718469 22.30633759 -4.36130631 21.78030325 -1 21 C2.15441888 19.17375749 2.82861833 18.51414502 4 15 C4.48127165 10.66855515 4.51297129 8.7150509 1.9375 5.125 C-4.13876852 0.7294015 -8.35118214 1.29265179 -14 6 Z " fill="#F4F5F5" transform="translate(942,182)"/>
<path d="M0 0 C6.6 0 13.2 0 20 0 C20 0.99 20 1.98 20 3 C14.39 3 8.78 3 3 3 C3 5.31 3 7.62 3 10 C7.95 10 12.9 10 18 10 C18 10.99 18 11.98 18 13 C13.05 13 8.1 13 3 13 C3 15.64 3 18.28 3 21 C8.61 21 14.22 21 20 21 C20 21.99 20 22.98 20 24 C13.4 24 6.8 24 0 24 C0 16.08 0 8.16 0 0 Z " fill="#F4F5F6" transform="translate(1046,182)"/>
<path d="M0 0 C3.83075794 1.59614914 5.78252057 3.53826822 8 7 C8.80407057 11.0605564 8.93064111 15.22072831 6.98046875 18.94921875 C4.85618473 21.59976044 3.23500981 22.9216634 0 24 C-5.02013384 24.52707085 -8.90468051 24.52810047 -13.5 22.3125 C-17.20592951 18.8845152 -17.83480306 16.51430531 -18.375 11.5625 C-17.92715888 7.30800938 -16.6792268 5.2916215 -14 2 C-9.53862011 -0.97425326 -5.23225066 -0.49867492 0 0 Z M-13 6 C-14.60086627 9.20173254 -14.49917089 12.52577059 -14 16 C-12.20636089 18.8100346 -10.98119065 20.50940468 -8 22 C-3.36445612 22.41204834 -0.69583902 21.87454146 3 19 C5.32826375 15.78477863 5.39711181 12.89169575 5 9 C3.72311154 6.19084539 2.68900183 4.49893236 0.1875 2.6875 C-5.5478341 0.88496643 -8.72638068 1.84848409 -13 6 Z " fill="#F5F6F7" transform="translate(717,182)"/>
<path d="M0 0 C1.32 0 2.64 0 4 0 C4.06058594 1.27617187 4.12117187 2.55234375 4.18359375 3.8671875 C4.26799568 5.53647016 4.35264386 7.20574037 4.4375 8.875 C4.47681641 9.71675781 4.51613281 10.55851563 4.55664062 11.42578125 C4.59853516 12.23144531 4.64042969 13.03710938 4.68359375 13.8671875 C4.72025146 14.61081543 4.75690918 15.35444336 4.79467773 16.12060547 C4.89955865 18.08864312 4.89955865 18.08864312 6 20 C9.3 20 12.6 20 16 20 C17.11823815 17.76352369 17.19396061 16.35108471 17.31640625 13.8671875 C17.35830078 13.06152344 17.40019531 12.25585938 17.44335938 11.42578125 C17.48267578 10.58402344 17.52199219 9.74226562 17.5625 8.875 C17.60568359 8.02550781 17.64886719 7.17601562 17.69335938 6.30078125 C17.79954236 4.20071777 17.90028497 2.10038052 18 0 C19.32 0 20.64 0 22 0 C22.05401695 2.91691525 22.09368066 5.83282724 22.125 8.75 C22.15013672 9.9875 22.15013672 9.9875 22.17578125 11.25 C22.18222656 12.04921875 22.18867187 12.8484375 22.1953125 13.671875 C22.20578613 14.4050293 22.21625977 15.13818359 22.22705078 15.89355469 C21.96388098 18.33509129 21.2719089 19.90991069 20 22 C15.5714756 25.04946636 10.1470728 24.65707312 5 24 C2.34436198 22.1031157 1.42757473 20.85514945 0 18 C-0.08308638 16.62451844 -0.10736016 15.24514204 -0.09765625 13.8671875 C-0.09443359 13.06152344 -0.09121094 12.25585938 -0.08789062 11.42578125 C-0.07951172 10.58402344 -0.07113281 9.74226562 -0.0625 8.875 C-0.05798828 8.02550781 -0.05347656 7.17601562 -0.04882812 6.30078125 C-0.03702874 4.20049091 -0.01909306 2.1002367 0 0 Z " fill="#E9EBED" transform="translate(730,182)"/>
<path d="M0 0 C3.1875 1.8125 3.1875 1.8125 5 4 C5 4.99 5 5.98 5 7 C2.4800269 6.5500048 1.11819916 6.0984993 -0.875 4.4375 C-3.78879382 2.46640418 -5.55008703 2.49688769 -9 3 C-11.57955419 4.24390705 -11.57955419 4.24390705 -13 7 C-13.65162065 11.97675272 -13.82622053 15.7606692 -11 20 C-8.67349535 20.51595005 -8.67349535 20.51595005 -6.0625 20.4375 C-5.18722656 20.45683594 -4.31195312 20.47617188 -3.41015625 20.49609375 C-0.26988259 19.84971651 0.16979454 18.5184026 2 16 C3.32 16 4.64 16 6 16 C4.71771426 19.95371436 3.57711263 21.857395 0 24 C-4.77278566 24.91733206 -9.7990564 25.26696385 -14.1171875 22.78125 C-17.32975314 19.52257097 -18.40596948 16.47632136 -18.6875 11.9375 C-18.38046454 6.77300613 -16.74061394 4.47342723 -13 1 C-9.06208295 -0.96895853 -4.29263867 -0.45771651 0 0 Z " fill="#E9EBED" transform="translate(679,182)"/>
<path d="M0 0 C3.1875 1.8125 3.1875 1.8125 5 4 C5 4.99 5 5.98 5 7 C2.4800269 6.5500048 1.11819916 6.0984993 -0.875 4.4375 C-3.78879382 2.46640418 -5.55008703 2.49688769 -9 3 C-11.57955419 4.24390705 -11.57955419 4.24390705 -13 7 C-13.59136766 11.05983868 -14.19491143 15.29191344 -11.75390625 18.78125 C-8.51249967 21.03363052 -4.77273796 20.67243922 -1 20 C0.84315671 18.0995533 0.84315671 18.0995533 2 16 C3.32 16 4.64 16 6 16 C4.71855277 19.95112895 3.5657383 21.84698501 0 24 C-4.36196782 24.79068903 -8.98781019 25.01779368 -13.015625 22.98046875 C-16.27121725 20.36493226 -17.7217023 18.08723274 -18.2734375 13.94921875 C-18.46508086 9.68146862 -18.41093753 6.8840947 -15.625 3.5 C-10.92863088 -0.97273249 -6.26773816 -0.6683179 0 0 Z " fill="#E9EAEC" transform="translate(391,182)"/>
<path d="M0 0 C0.33 0 0.66 0 1 0 C1 6.27 1 12.54 1 19 C-5.6 19 -12.2 19 -19 19 C-19 16.36 -19 13.72 -19 11 C-14.05 10.67 -9.1 10.34 -4 10 C-2.68 6.7 -1.36 3.4 0 0 Z " fill="#EAD779" transform="translate(71,190)"/>
<path d="M0 0 C2.70920452 1.38550573 3.94396132 2.66611825 6 5 C6 5.66 6 6.32 6 7 C3.525 6.505 3.525 6.505 1 6 C1 5.34 1 4.68 1 4 C-3.48008087 3.10203172 -6.8088289 2.46518849 -11.0625 4.375 C-13.49003184 7.6639141 -13.73192124 9.77884999 -13.47265625 13.80078125 C-13.06878696 16.28050049 -13.06878696 16.28050049 -11.0625 19.125 C-6.8088511 21.72927483 -3.72821098 21.04041244 1 20 C1.33 18.68 1.66 17.36 2 16 C3.32 16 4.64 16 6 16 C5.69895795 18.80972581 4.95275592 20.05669289 3.125 22.25 C-1.51468819 24.84822539 -5.79838954 24.77437509 -11 24 C-14.25204941 22.20805441 -15.50298243 20.87569763 -17.3125 17.6875 C-18.59658902 12.66787927 -18.70862522 9.29507368 -16.1875 4.6875 C-11.62161433 -0.92201668 -6.82167902 -0.98146664 0 0 Z " fill="#EDEEEF" transform="translate(523,182)"/>
<path d="M0 0 C3.1875 1.8125 3.1875 1.8125 5 4 C5 4.99 5 5.98 5 7 C3.68 6.67 2.36 6.34 1 6 C1 5.34 1 4.68 1 4 C-3.48008087 3.10203172 -6.8088289 2.46518849 -11.0625 4.375 C-13.85660228 8.16055793 -13.56139527 11.44467834 -13 16 C-12.69263563 17.33955815 -12.36722029 18.67559895 -12 20 C-10.58456585 20.19658808 -9.16755969 20.38187546 -7.75 20.5625 C-6.96109375 20.66691406 -6.1721875 20.77132812 -5.359375 20.87890625 C-2.99467126 21.00027349 -1.2488963 20.69633257 1 20 C1.33 18.68 1.66 17.36 2 16 C3.32 16 4.64 16 6 16 C5.69895795 18.80972581 4.95275592 20.05669289 3.125 22.25 C-1.51468819 24.84822539 -5.79838954 24.77437509 -11 24 C-14.2215705 22.22484891 -15.4839615 20.88463743 -17.3125 17.75 C-18.40266325 13.38934698 -19.27474693 9.19881998 -16.94921875 5.1875 C-12.07358456 -0.79557913 -7.34937797 -0.78365125 0 0 Z " fill="#ECEDEF" transform="translate(858,182)"/>
<path d="M0 0 C2.70920452 1.38550573 3.94396132 2.66611825 6 5 C6 5.66 6 6.32 6 7 C1.34074074 6.37037037 1.34074074 6.37037037 -0.4375 4.4375 C-2.00686037 2.72507769 -2.00686037 2.72507769 -4.875 2.5625 C-8.85139809 3.11919573 -10.39423498 3.9343941 -13 7 C-13.55259414 11.35167886 -13.4151194 13.85231695 -11.9375 17.9375 C-9.16738774 20.88632918 -6.96196851 20.86098356 -3 21 C-0.72476911 20.95502158 -0.72476911 20.95502158 1 20 C2.28436734 18.0162233 2.28436734 18.0162233 3 16 C3.99 16 4.98 16 6 16 C5.69895795 18.80972581 4.95275592 20.05669289 3.125 22.25 C-1.51468819 24.84822539 -5.79838954 24.77437509 -11 24 C-14.25204941 22.20805441 -15.50298243 20.87569763 -17.3125 17.6875 C-18.59658902 12.66787927 -18.70862522 9.29507368 -16.1875 4.6875 C-11.62161433 -0.92201668 -6.82167902 -0.98146664 0 0 Z " fill="#EDEFF0" transform="translate(594,182)"/>
<path d="M0 0 C1.32 0 2.64 0 4 0 C6.64 6.27 9.28 12.54 12 19 C14.33113669 14.33772662 16.61619129 9.74179714 18.75 5 C19.17796875 4.05125 19.6059375 3.1025 20.046875 2.125 C20.36140625 1.42375 20.6759375 0.7225 21 0 C22.32 0.33 23.64 0.66 25 1 C23.46831264 4.65955113 21.8947098 8.29953959 20.3125 11.9375 C19.87744141 12.97841797 19.44238281 14.01933594 18.99414062 15.09179688 C18.55908203 16.08115234 18.12402344 17.07050781 17.67578125 18.08984375 C17.28302002 19.00628662 16.89025879 19.92272949 16.4855957 20.86694336 C15 23 15 23 12.33276367 23.80688477 C11.17804565 23.90247681 11.17804565 23.90247681 10 24 C8.33039819 20.18877865 6.66481068 16.37581636 5 12.5625 C4.28457031 10.92958008 4.28457031 10.92958008 3.5546875 9.26367188 C3.10351562 8.22919922 2.65234375 7.19472656 2.1875 6.12890625 C1.76855469 5.17056885 1.34960938 4.21223145 0.91796875 3.22485352 C0 1 0 1 0 0 Z " fill="#ECEDEF" transform="translate(294,182)"/>
<path d="M0 0 C0 13.53 0 27.06 0 41 C-1.32 41 -2.64 41 -4 41 C-4.24203378 35.80464606 -4.45697248 30.60913861 -4.64697266 25.41162109 C-4.71539208 23.64406537 -4.79118206 21.87677884 -4.87451172 20.10986328 C-4.99308552 17.56838393 -5.08503023 15.02711195 -5.171875 12.484375 C-5.21439392 11.69569031 -5.25691284 10.90700562 -5.30072021 10.09442139 C-5.4021367 6.39930309 -5.34526347 4.44840985 -3.05175781 1.46972656 C-1 0 -1 0 0 0 Z " fill="#F2DF85" transform="translate(189,168)"/>
<path d="M0 0 C5.94 0.33 11.88 0.66 18 1 C18 3.97 18 6.94 18 10 C12.72 10 7.44 10 2 10 C2 7.36 2 4.72 2 2 C1.34 2 0.68 2 0 2 C0 1.34 0 0.68 0 0 Z " fill="#DBB91B" transform="translate(203,199)"/>
<path d="M0 0 C1.32 0 2.64 0 4 0 C4 6.93 4 13.86 4 21 C8.62 21 13.24 21 18 21 C18 21.99 18 22.98 18 24 C12.06 24 6.12 24 0 24 C0 16.08 0 8.16 0 0 Z " fill="#E7E9EB" transform="translate(954,182)"/>
<path d="M0 0 C7.26 0 14.52 0 22 0 C22 0.99 22 1.98 22 3 C18.7 3 15.4 3 12 3 C12 9.93 12 16.86 12 24 C11.01 24 10.02 24 9 24 C9 17.07 9 10.14 9 3 C6.03 3 3.06 3 0 3 C0 2.01 0 1.02 0 0 Z " fill="#F6F6F7" transform="translate(790,182)"/>
<path d="M0 0 C1.65 0 3.3 0 5 0 C6.83645687 3.81100321 8.66864144 7.62404453 10.5 11.4375 C11.02464844 12.52611328 11.54929687 13.61472656 12.08984375 14.73632812 C12.58613281 15.77080078 13.08242188 16.80527344 13.59375 17.87109375 C14.05458984 18.82943115 14.51542969 19.78776855 14.99023438 20.77514648 C16 23 16 23 16 24 C14.35 24 12.7 24 11 24 C10.01 21.69 9.02 19.38 8 17 C5.03 16.67 2.06 16.34 -1 16 C-1 15.67 -1 15.34 -1 15 C1.64 15 4.28 15 7 15 C5.68 11.7 4.36 8.4 3 5 C1.68 5 0.36 5 -1 5 C-0.67 3.35 -0.34 1.7 0 0 Z " fill="#EFF0F2" transform="translate(250,182)"/>
<path d="M0 0 C2.51139518 1.85624861 3.02730706 3.09906463 3.87109375 6.16015625 C4.03011549 10.8970766 2.86594133 14.1242366 1.0625 18.4375 C0.77181641 19.16904297 0.48113281 19.90058594 0.18164062 20.65429688 C-0.53111567 22.44202989 -1.26356755 24.22188918 -2 26 C-2.33 26 -2.66 26 -3 26 C-3.06058594 25.16855469 -3.12117188 24.33710938 -3.18359375 23.48046875 C-3.26738281 22.39378906 -3.35117188 21.30710938 -3.4375 20.1875 C-3.51871094 19.10855469 -3.59992188 18.02960938 -3.68359375 16.91796875 C-3.90212461 13.94010095 -3.90212461 13.94010095 -5 11 C-4.00390625 8.30078125 -4.00390625 8.30078125 -2.5625 5.3125 C-2.08941406 4.31863281 -1.61632812 3.32476562 -1.12890625 2.30078125 C-0.75636719 1.54152344 -0.38382812 0.78226563 0 0 Z " fill="#E3C537" transform="translate(81,166)"/>
<path d="M0 0 C4.95 0 9.9 0 15 0 C15 2.31 15 4.62 15 7 C10.05 7 5.1 7 0 7 C0 4.69 0 2.38 0 0 Z " fill="#F6F1DC" transform="translate(159,202)"/>
<path d="M0 0 C1.65 0 3.3 0 5 0 C8.63 7.59 12.26 15.18 16 23 C14.68 23.33 13.36 23.66 12 24 C9 19.375 9 19.375 9 16 C5.7 16 2.4 16 -1 16 C-1 15.67 -1 15.34 -1 15 C1.97 15 4.94 15 8 15 C6.02 11.04 4.04 7.08 2 3 C1.34 3 0.68 3 0 3 C0 2.01 0 1.02 0 0 Z " fill="#F1F2F3" transform="translate(327,182)"/>
<path d="M0 0 C4.40512423 1.17469979 6.67437301 2.02791143 9 6 C9.73929819 10.86342241 9.61279817 15.49864447 7.75 20.0625 C5.90317736 22.10719649 4.59789565 23.10697337 2 24 C1.01 24 0.02 24 -1 24 C0.3029232 21.093479 1.70873381 19.19164592 4 17 C5.54586876 13.90826248 5.29359521 11.40570448 5 8 C3.13291495 5.63502561 1.67938569 4.33969285 -1 3 C-0.67 2.01 -0.34 1.02 0 0 Z " fill="#EFF0F1" transform="translate(282,182)"/>
<path d="M0 0 C1.32 0 2.64 0 4 0 C4 7.92 4 15.84 4 24 C2.68 24 1.36 24 0 24 C0 16.08 0 8.16 0 0 Z " fill="#E5E7E9" transform="translate(1035,182)"/>
<path d="M0 0 C1.32 0 2.64 0 4 0 C4 7.92 4 15.84 4 24 C2.68 24 1.36 24 0 24 C0 16.08 0 8.16 0 0 Z " fill="#E9EBED" transform="translate(690,182)"/>
<path d="M0 0 C1.32 0 2.64 0 4 0 C4 7.92 4 15.84 4 24 C2.68 24 1.36 24 0 24 C0 16.08 0 8.16 0 0 Z " fill="#E9EBED" transform="translate(402,182)"/>
<path d="M0 0 C3.85295563 1.37605558 4.8216902 3.33088041 6.625 6.9375 C7.4930994 12.9056834 6.05565473 16.2087597 2.625 20.9375 C-0.125 22.375 -0.125 22.375 -2.375 22.9375 C-2.375 21.6175 -2.375 20.2975 -2.375 18.9375 C-1.385 18.2775 -0.395 17.6175 0.625 16.9375 C1.82254817 13.34485548 1.95594958 10.71032526 1.625 6.9375 C-0.1462618 4.58227775 -0.1462618 4.58227775 -2.375 2.9375 C-3.035 2.2775 -3.695 1.6175 -4.375 0.9375 C-2.375 -0.0625 -2.375 -0.0625 0 0 Z " fill="#E8E9EB" transform="translate(943.375,183.0625)"/>
<path d="M0 0 C0.66 0.33 1.32 0.66 2 1 C1.01 2.485 1.01 2.485 0 4 C-2.42195177 8.28833037 -2.709512 11.11225068 -2 16 C0.39583651 18.81331378 0.39583651 18.81331378 3 21 C3 21.99 3 22.98 3 24 C-2.50143266 22.53295129 -2.50143266 22.53295129 -4.8125 20.0625 C-7.15395443 15.99576336 -7.39207134 12.6264418 -7 8 C-4.97333762 4.29609979 -3.51955484 2.34636989 0 0 Z " fill="#E9EBED" transform="translate(706,182)"/>
<path d="M0 0 C4.29 0 8.58 0 13 0 C13 2.31 13 4.62 13 7 C8.71 7 4.42 7 0 7 C0 4.69 0 2.38 0 0 Z " fill="#F1EEE0" transform="translate(52,202)"/>
<path d="M0 0 C3.63 0 7.26 0 11 0 C11 2.64 11 5.28 11 8 C7.37 8 3.74 8 0 8 C0 5.36 0 2.72 0 0 Z " fill="#E8C318" transform="translate(80,201)"/>
<path d="M0 0 C0.05434116 2.5419589 0.0938339 5.08273682 0.125 7.625 C0.14175781 8.33785156 0.15851563 9.05070313 0.17578125 9.78515625 C0.21684602 14.2612164 -0.30913433 17.77949278 -2 22 C-2.33 22 -2.66 22 -3 22 C-3.06058594 21.09636719 -3.12117188 20.19273437 -3.18359375 19.26171875 C-3.26738281 18.08222656 -3.35117188 16.90273437 -3.4375 15.6875 C-3.51871094 14.51574219 -3.59992188 13.34398437 -3.68359375 12.13671875 C-3.8867371 8.97409042 -3.8867371 8.97409042 -5 6 C-4.1875 3.375 -4.1875 3.375 -3 1 C-1 0 -1 0 0 0 Z " fill="#E8CD4F" transform="translate(78,179)"/>
<path d="M0 0 C2.22825644 2.22825644 2.69239369 3.65761628 3.625 6.625 C3.88539063 7.44226563 4.14578125 8.25953125 4.4140625 9.1015625 C4.60742188 9.72804687 4.80078125 10.35453125 5 11 C2.03 11 -0.94 11 -4 11 C-2.68 7.37 -1.36 3.74 0 0 Z " fill="#243447" transform="translate(252,185)"/>
<path d="M0 0 C2.90408342 3.87211123 3.85079464 6.40317854 5 11 C2.03 11 -0.94 11 -4 11 C-2.68 7.37 -1.36 3.74 0 0 Z " fill="#243547" transform="translate(329,185)"/>
<path d="M0 0 C4.12131718 -0.00692658 6.44901843 0.10056703 10.07421875 2.24609375 C12.01171875 4.43359375 12.01171875 4.43359375 12.01171875 7.43359375 C10.69171875 7.43359375 9.37171875 7.43359375 8.01171875 7.43359375 C8.01171875 6.44359375 8.01171875 5.45359375 8.01171875 4.43359375 C4.05171875 4.10359375 0.09171875 3.77359375 -3.98828125 3.43359375 C-1.98828125 0.43359375 -1.98828125 0.43359375 0 0 Z " fill="#E4E6E9" transform="translate(1078.98828125,181.56640625)"/>
<path d="M0 0 C9.83711825 -0.4651527 9.83711825 -0.4651527 14.125 1.25 C16.18075889 3.1687083 16.71364159 4.23186874 17 7 C14.48935405 6.55167037 13.14602438 6.12588308 11.1875 4.4375 C8.07207267 2.39021918 5.65063988 2.73449892 2 3 C1.01 3.33 0.02 3.66 -1 4 C-0.67 2.68 -0.34 1.36 0 0 Z " fill="#F2F3F4" transform="translate(447,182)"/>
<path d="M0 0 C7.19285339 -0.48765108 7.19285339 -0.48765108 11 1.8125 C13 4 13 4 13 7 C11.68 7 10.36 7 9 7 C8.34 6.01 7.68 5.02 7 4 C5.03638136 3.42251197 5.03638136 3.42251197 2.875 3.3125 C1.59625 3.209375 0.3175 3.10625 -1 3 C-0.67 2.01 -0.34 1.02 0 0 Z " fill="#DFE1E4" transform="translate(765,182)"/>
<path d="M0 0 C0.33 0 0.66 0 1 0 C1 3.3 1 6.6 1 10 C-0.32 10 -1.64 10 -3 10 C-3 7.69 -3 5.38 -3 3 C-7.29 3 -11.58 3 -16 3 C-16 2.67 -16 2.34 -16 2 C-14.92878906 1.93941406 -13.85757813 1.87882813 -12.75390625 1.81640625 C-11.35675609 1.73201463 -9.95962143 1.64736594 -8.5625 1.5625 C-7.50192383 1.50352539 -7.50192383 1.50352539 -6.41992188 1.44335938 C-2.91309581 1.52375562 -2.91309581 1.52375562 0 0 Z " fill="#D4C98E" transform="translate(68,199)"/>
<path d="M0 0 C2.2421875 -0.36328125 2.2421875 -0.36328125 4.875 -0.3125 C6.17050781 -0.30669922 6.17050781 -0.30669922 7.4921875 -0.30078125 C10.13660067 0.01638357 11.77450735 0.55095701 14 2 C15.25 4.625 15.25 4.625 16 7 C14.68 7 13.36 7 12 7 C11.46375 6.34 10.9275 5.68 10.375 5 C6.65705691 1.86910055 2.67382687 2.67889739 -2 3 C-1.34 2.01 -0.68 1.02 0 0 Z " fill="#F3F4F5" transform="translate(1013,182)"/>
<path d="M0 0 C4.6603705 -0.36551926 7.95142865 -0.62058305 12.0625 1.8125 C14 4 14 4 14 7 C11.53237502 6.55935268 10.14211048 6.11760867 8.1875 4.5 C5.23082521 2.47256586 2.52071423 2.33853021 -1 2 C-0.67 1.34 -0.34 0.68 0 0 Z " fill="#F0F1F2" transform="translate(382,182)"/>
<path d="M0 0 C7.19285339 -0.48765108 7.19285339 -0.48765108 11 1.8125 C13 4 13 4 13 7 C11.68 6.67 10.36 6.34 9 6 C9 5.34 9 4.68 9 4 C6.03 3.67 3.06 3.34 0 3 C0 2.01 0 1.02 0 0 Z " fill="#F3F4F5" transform="translate(850,182)"/>
<path d="M0 0 C0.05389087 1.95803507 0.09274217 3.91648909 0.125 5.875 C0.14820313 6.96554688 0.17140625 8.05609375 0.1953125 9.1796875 C0 12 0 12 -2 14 C-4.28571429 5.57142857 -4.28571429 5.57142857 -4 1 C-2 0 -2 0 0 0 Z " fill="#E2DCB9" transform="translate(174,183)"/>
<path d="M0 0 C1.65 0 3.3 0 5 0 C5 2.31 5 4.62 5 7 C3.35 7 1.7 7 0 7 C0 4.69 0 2.38 0 0 Z " fill="#F7EBB3" transform="translate(60,202)"/>
<path d="M0 0 C1.32 0 2.64 0 4 0 C4 2.64 4 5.28 4 8 C2.68 8 1.36 8 0 8 C0 5.36 0 2.72 0 0 Z " fill="#EDCF48" transform="translate(76,201)"/>
<path d="M0 0 C1.32 0 2.64 0 4 0 C4 2.64 4 5.28 4 8 C2.68 8 1.36 8 0 8 C0 5.36 0 2.72 0 0 Z " fill="#D7B205" transform="translate(87,201)"/>
<path d="M0 0 C0.66 0 1.32 0 2 0 C2.22171552 2.60365928 2.42784859 5.20696493 2.625 7.8125 C2.68945312 8.55048828 2.75390625 9.28847656 2.8203125 10.04882812 C3.2265625 15.66015625 3.2265625 15.66015625 1 19 C0.93941406 18.09636719 0.87882812 17.19273437 0.81640625 16.26171875 C0.73261719 15.08222656 0.64882812 13.90273437 0.5625 12.6875 C0.48128906 11.51574219 0.40007812 10.34398437 0.31640625 9.13671875 C0.1132629 5.97409042 0.1132629 5.97409042 -1 3 C-0.67 2.01 -0.34 1.02 0 0 Z " fill="#E0C958" transform="translate(74,182)"/>
<path d="M0 0 C3.3 0 6.6 0 10 0 C10 0.99 10 1.98 10 3 C6.7 3 3.4 3 0 3 C0 2.01 0 1.02 0 0 Z " fill="#EFF0F1" transform="translate(562,196)"/>
<path d="M0 0 C0.33 0 0.66 0 1 0 C1 6.6 1 13.2 1 20 C0.67 20 0.34 20 0 20 C-0.06058594 19.16855469 -0.12117188 18.33710938 -0.18359375 17.48046875 C-0.26738281 16.39378906 -0.35117188 15.30710938 -0.4375 14.1875 C-0.51871094 13.10855469 -0.59992188 12.02960938 -0.68359375 10.91796875 C-0.90212461 7.94010095 -0.90212461 7.94010095 -2 5 C-1.0625 2.3125 -1.0625 2.3125 0 0 Z " fill="#DDC346" transform="translate(78,172)"/>
<path d="M0 0 C0.99 0.99 1.98 1.98 3 3 C2.77589301 7.18333056 2.3385104 9.49223439 0 13 C0 8.71 0 4.42 0 0 Z " fill="#E0BF25" transform="translate(82,168)"/>
<path d="M0 0 C0.99 0 1.98 0 3 0 C3 2.64 3 5.28 3 8 C2.01 8 1.02 8 0 8 C0 5.36 0 2.72 0 0 Z " fill="#EAC930" transform="translate(80,201)"/>
<path d="M0 0 C0.99 0 1.98 0 3 0 C3 2.31 3 4.62 3 7 C2.01 7 1.02 7 0 7 C0 4.69 0 2.38 0 0 Z " fill="#FAF2CF" transform="translate(57,202)"/>
</svg>
